<svg xmlns="http://www.w3.org/2000/svg" xmlns:xlink="http://www.w3.org/1999/xlink" width="512" zoomAndPan="magnify" viewBox="0 0 384 383.999986" height="512" preserveAspectRatio="xMidYMid meet" version="1.0"><defs><clipPath id="7c3a687d2c"><path d="M 23 99 L 314 99 L 314 319 L 23 319 Z M 23 99 " clip-rule="nonzero"/></clipPath><clipPath id="a7d67e6b83"><path d="M 278.398438 44.078125 L 349.558594 155.707031 L 94.46875 318.324219 L 23.304688 206.691406 Z M 278.398438 44.078125 " clip-rule="nonzero"/></clipPath><clipPath id="44891d5e2b"><path d="M 313.980469 99.894531 L 94.792969 318.117188 L 23.632812 206.484375 Z M 313.980469 99.894531 " clip-rule="nonzero"/></clipPath><clipPath id="c6ac3b9351"><path d="M 0.519531 0.839844 L 291 0.839844 L 291 219.238281 L 0.519531 219.238281 Z M 0.519531 0.839844 " clip-rule="nonzero"/></clipPath><clipPath id="c3db619582"><path d="M 255.398438 -54.921875 L 326.558594 56.707031 L 71.46875 219.324219 L 0.304688 107.691406 Z M 255.398438 -54.921875 " clip-rule="nonzero"/></clipPath><clipPath id="eda96be9f8"><path d="M 290.980469 0.894531 L 71.792969 219.117188 L 0.632812 107.484375 Z M 290.980469 0.894531 " clip-rule="nonzero"/></clipPath><clipPath id="071679561e"><rect x="0" width="291" y="0" height="220"/></clipPath><clipPath id="5c19b382a7"><path d="M 24 94 L 315 94 L 315 313 L 24 313 Z M 24 94 " clip-rule="nonzero"/></clipPath><clipPath id="993c7f7f2d"><path d="M 279.148438 38.828125 L 350.308594 150.457031 L 95.21875 313.074219 L 24.054688 201.441406 Z M 279.148438 38.828125 " clip-rule="nonzero"/></clipPath><clipPath id="fc56d20cba"><path d="M 314.730469 94.644531 L 95.542969 312.867188 L 24.382812 201.234375 Z M 314.730469 94.644531 " clip-rule="nonzero"/></clipPath><clipPath id="90db504772"><path d="M 0.238281 0.558594 L 290.878906 0.558594 L 290.878906 218.960938 L 0.238281 218.960938 Z M 0.238281 0.558594 " clip-rule="nonzero"/></clipPath><clipPath id="7f45e62af5"><path d="M 255.148438 -55.171875 L 326.308594 56.457031 L 71.21875 219.074219 L 0.0546875 107.441406 Z M 255.148438 -55.171875 " clip-rule="nonzero"/></clipPath><clipPath id="9cc3854ff7"><path d="M 290.730469 0.644531 L 71.542969 218.867188 L 0.382812 107.234375 Z M 290.730469 0.644531 " clip-rule="nonzero"/></clipPath><clipPath id="d7f10a3ddb"><rect x="0" width="291" y="0" height="219"/></clipPath></defs><g clip-path="url(#7c3a687d2c)"><g clip-path="url(#a7d67e6b83)"><g clip-path="url(#44891d5e2b)"><g transform="matrix(1, 0, 0, 1, 23, 99)"><g clip-path="url(#071679561e)"><g clip-path="url(#c6ac3b9351)"><g clip-path="url(#c3db619582)"><g clip-path="url(#eda96be9f8)"><path fill="#fdf7e1" d="M 255.398438 -54.921875 L 326.558594 56.707031 L 71.902344 219.046875 L 0.742188 107.414062 Z M 255.398438 -54.921875 " fill-opacity="1" fill-rule="nonzero"/></g></g></g></g></g></g></g></g><g clip-path="url(#5c19b382a7)"><g clip-path="url(#993c7f7f2d)"><g clip-path="url(#fc56d20cba)"><g transform="matrix(1, 0, 0, 1, 24, 94)"><g clip-path="url(#d7f10a3ddb)"><g clip-path="url(#90db504772)"><g clip-path="url(#7f45e62af5)"><g clip-path="url(#9cc3854ff7)"><path fill="#bb0014" d="M 255.148438 -55.171875 L 326.308594 56.457031 L 71.652344 218.796875 L 0.492188 107.164062 Z M 255.148438 -55.171875 " fill-opacity="1" fill-rule="nonzero"/></g></g></g></g></g></g></g></g></svg>